<svg viewBox="0 0 100 100" width="100%" height="100%" xmlns="http://www.w3.org/2000/svg">
  <defs>
    <linearGradient id="goldBevelGrad" x1="0%" y1="0%" x2="100%" y2="100%">
      <stop offset="0%" stop-color="#FFE082"/>
      <stop offset="20%" stop-color="#FFD54F"/>
      <stop offset="45%" stop-color="#FFB300"/>
      <stop offset="70%" stop-color="#FFF8E1"/>
      <stop offset="85%" stop-color="#FFA000"/>
      <stop offset="100%" stop-color="#FF6F00"/>
    </linearGradient>
    <radialGradient id="rubyCoreGrad" cx="38%" cy="32%" r="72%">
      <stop offset="0%" stop-color="#FF6D00"/>
      <stop offset="28%" stop-color="#FF3D00"/>
      <stop offset="60%" stop-color="#D50000"/>
      <stop offset="85%" stop-color="#9A0007"/>
      <stop offset="100%" stop-color="#4A0004"/>
    </radialGradient>
    <radialGradient id="centerSunGlow" cx="50%" cy="50%" r="50%">
      <stop offset="0%" stop-color="#FFF9C4" stop-opacity="0.95"/>
      <stop offset="35%" stop-color="#FFD54F" stop-opacity="0.6"/>
      <stop offset="75%" stop-color="#FF9100" stop-opacity="0.15"/>
      <stop offset="100%" stop-color="#FF6D00" stop-opacity="0"/>
    </radialGradient>
    <linearGradient id="specularDome" x1="50%" y1="0%" x2="50%" y2="100%">
      <stop offset="0%" stop-color="#FFFFFF" stop-opacity="0.65"/>
      <stop offset="30%" stop-color="#FFFFFF" stop-opacity="0.18"/>
      <stop offset="70%" stop-color="#FFFFFF" stop-opacity="0"/>
    </linearGradient>
    <filter id="emblemShadow" x="-20%" y="-20%" width="140%" height="140%">
      <feDropShadow dx="0" dy="4" stdDeviation="4.5" flood-color="#3E0000" flood-opacity="0.5"/>
    </filter>
  </defs>
  <circle cx="50" cy="50" r="48" fill="url(#goldBevelGrad)" filter="url(#emblemShadow)"/>
  <circle cx="50" cy="50" r="44.5" fill="#2A0002"/>
  <circle cx="50" cy="50" r="43" fill="url(#rubyCoreGrad)"/>
  <circle cx="50" cy="50" r="37" fill="none" stroke="#FFD54F" stroke-width="0.8" stroke-dasharray="3 4" opacity="0.45"/>
  <path d="M 21 39 A 32 32 0 0 1 21 61" fill="none" stroke="#FFE082" stroke-width="2.6" stroke-linecap="round" opacity="0.85"/>
  <path d="M 27 42 A 22 22 0 0 1 27 58" fill="none" stroke="#FFF9C4" stroke-width="2.8" stroke-linecap="round" opacity="0.95"/>
  <path d="M 79 39 A 32 32 0 0 0 79 61" fill="none" stroke="#FFE082" stroke-width="2.6" stroke-linecap="round" opacity="0.85"/>
  <path d="M 73 42 A 22 22 0 0 0 73 58" fill="none" stroke="#FFF9C4" stroke-width="2.8" stroke-linecap="round" opacity="0.95"/>
  <circle cx="50" cy="50" r="22" fill="url(#centerSunGlow)"/>
  <path d="M 50 16 C 39 28, 33 40, 41 57 C 45 66, 50 72, 50 72 C 50 72, 55 66, 59 57 C 67 40, 61 28, 50 16 Z" fill="#FFFFFF"/>
  <path d="M 50 23 C 43 32, 38.5 41, 44 54 C 47 60, 50 65, 50 65 C 50 65, 53 60, 56 54 C 61.5 41, 57 32, 50 23 Z" fill="url(#rubyCoreGrad)"/>
  <path d="M 50 18 L 50 67" stroke="url(#goldBevelGrad)" stroke-width="3" stroke-linecap="round"/>
  <circle cx="50" cy="45" r="7.5" fill="#FFFFFF" stroke="url(#goldBevelGrad)" stroke-width="2"/>
  <circle cx="50" cy="45" r="4.8" fill="#1B5E20"/>
  <circle cx="50" cy="45" r="2" fill="#00E676"/>
  <polygon points="50,9 52,13 56,15 52,17 50,21 48,17 44,15 48,13" fill="#FFF9C4"/>
  <path d="M 12 44 A 43 43 0 0 1 88 44 C 74 51, 26 51, 12 44 Z" fill="url(#specularDome)"/>
</svg>